<mxfile host="app.diagrams.net" modified="2021-12-20T17:31:05.958Z" agent="5.0 (Macintosh; Intel Mac OS X 10_15_7) AppleWebKit/537.36 (KHTML, like Gecko) Chrome/96.0.4664.110 Safari/537.36" etag="BKkdAsgDPpFqtJeV7Ind" version="16.0.0" type="github" pages="3">
  <diagram id="XS5NZsYhdVDpkxtMLIYf" name="Contents">
    <mxGraphModel dx="1186" dy="499" grid="1" gridSize="10" guides="1" tooltips="1" connect="1" arrows="1" fold="1" page="1" pageScale="1" pageWidth="850" pageHeight="1100" math="1" shadow="0">
      <root>
        <mxCell id="Z3eSaY7nEmQp83t4JaP1-0" />
        <mxCell id="Z3eSaY7nEmQp83t4JaP1-1" parent="Z3eSaY7nEmQp83t4JaP1-0" />
        <mxCell id="vQvPMugCWMnJx9Grhl2Z-1" value="" style="edgeStyle=orthogonalEdgeStyle;rounded=0;orthogonalLoop=1;jettySize=auto;html=1;" parent="Z3eSaY7nEmQp83t4JaP1-1" source="lZN4m0LRA45M3t4RuXkj-0" target="vQvPMugCWMnJx9Grhl2Z-0" edge="1">
          <mxGeometry relative="1" as="geometry" />
        </mxCell>
        <mxCell id="vQvPMugCWMnJx9Grhl2Z-5" style="edgeStyle=orthogonalEdgeStyle;rounded=0;orthogonalLoop=1;jettySize=auto;html=1;entryX=0;entryY=0.5;entryDx=0;entryDy=0;" parent="Z3eSaY7nEmQp83t4JaP1-1" source="lZN4m0LRA45M3t4RuXkj-0" target="vQvPMugCWMnJx9Grhl2Z-4" edge="1">
          <mxGeometry relative="1" as="geometry" />
        </mxCell>
        <mxCell id="lZN4m0LRA45M3t4RuXkj-0" value="$$e+e-\to\mu+\mu-$$" style="rounded=1;whiteSpace=wrap;html=1;" parent="Z3eSaY7nEmQp83t4JaP1-1" vertex="1">
          <mxGeometry x="40" y="90" width="120" height="60" as="geometry" />
        </mxCell>
        <mxCell id="vQvPMugCWMnJx9Grhl2Z-0" value="Cross Section" style="whiteSpace=wrap;html=1;rounded=1;" parent="Z3eSaY7nEmQp83t4JaP1-1" vertex="1">
          <mxGeometry x="240" y="50" width="120" height="60" as="geometry" />
        </mxCell>
        <mxCell id="vQvPMugCWMnJx9Grhl2Z-7" value="" style="edgeStyle=orthogonalEdgeStyle;rounded=0;orthogonalLoop=1;jettySize=auto;html=1;" parent="Z3eSaY7nEmQp83t4JaP1-1" source="vQvPMugCWMnJx9Grhl2Z-2" target="vQvPMugCWMnJx9Grhl2Z-6" edge="1">
          <mxGeometry relative="1" as="geometry" />
        </mxCell>
        <mxCell id="vQvPMugCWMnJx9Grhl2Z-2" value="$$\frac{d \sigma}{d \Omega}=\frac{1}{64 \pi^{2} E_{\mathrm{cm}}^{2}} \cdot|\mathcal{M}|^{2}$$" style="rounded=1;whiteSpace=wrap;html=1;" parent="Z3eSaY7nEmQp83t4JaP1-1" vertex="1">
          <mxGeometry x="360" y="50" width="160" height="60" as="geometry" />
        </mxCell>
        <mxCell id="vQvPMugCWMnJx9Grhl2Z-4" value="Feynman&#39;s diagram&lt;br&gt;(Feynman&#39;s rules)" style="rounded=1;whiteSpace=wrap;html=1;" parent="Z3eSaY7nEmQp83t4JaP1-1" vertex="1">
          <mxGeometry x="240" y="130" width="120" height="60" as="geometry" />
        </mxCell>
        <mxCell id="vQvPMugCWMnJx9Grhl2Z-6" value="DEAD END" style="rounded=1;whiteSpace=wrap;html=1;" parent="Z3eSaY7nEmQp83t4JaP1-1" vertex="1">
          <mxGeometry x="560" y="50" width="120" height="60" as="geometry" />
        </mxCell>
        <mxCell id="qaS2kFJzMprLW8xb901b-0" value="" style="image;html=1;image=img/lib/clip_art/general/Star_128x128.png" parent="Z3eSaY7nEmQp83t4JaP1-1" vertex="1">
          <mxGeometry x="340" y="170" width="30" height="30" as="geometry" />
        </mxCell>
      </root>
    </mxGraphModel>
  </diagram>
  <diagram id="3fMimIrCuo9KCQnrETgy" name="Center of mass model of e+e- Annihilation">
    <mxGraphModel dx="1186" dy="499" grid="1" gridSize="10" guides="1" tooltips="1" connect="1" arrows="1" fold="1" page="1" pageScale="1" pageWidth="850" pageHeight="1100" math="1" shadow="0">
      <root>
        <mxCell id="yK0ir2uRmSv_IbER57dE-0" />
        <mxCell id="yK0ir2uRmSv_IbER57dE-1" parent="yK0ir2uRmSv_IbER57dE-0" />
        <mxCell id="ihXd_GU8iQ0Z5vv8orbL-0" value="Center-of-Mass model" style="whiteSpace=wrap;html=1;rounded=1;" vertex="1" parent="yK0ir2uRmSv_IbER57dE-1">
          <mxGeometry x="160" width="120" height="60" as="geometry" />
        </mxCell>
        <mxCell id="ihXd_GU8iQ0Z5vv8orbL-1" style="edgeStyle=orthogonalEdgeStyle;rounded=0;orthogonalLoop=1;jettySize=auto;html=1;entryX=0;entryY=0.5;entryDx=0;entryDy=0;" edge="1" parent="yK0ir2uRmSv_IbER57dE-1" source="ihXd_GU8iQ0Z5vv8orbL-2" target="ihXd_GU8iQ0Z5vv8orbL-5">
          <mxGeometry relative="1" as="geometry" />
        </mxCell>
        <mxCell id="ihXd_GU8iQ0Z5vv8orbL-2" value="Conservation of Momentum&amp;nbsp;" style="whiteSpace=wrap;html=1;rounded=1;" vertex="1" parent="yK0ir2uRmSv_IbER57dE-1">
          <mxGeometry x="160" y="80" width="120" height="60" as="geometry" />
        </mxCell>
        <mxCell id="ihXd_GU8iQ0Z5vv8orbL-3" style="edgeStyle=orthogonalEdgeStyle;rounded=0;orthogonalLoop=1;jettySize=auto;html=1;entryX=0;entryY=0.5;entryDx=0;entryDy=0;" edge="1" parent="yK0ir2uRmSv_IbER57dE-1" source="ihXd_GU8iQ0Z5vv8orbL-4" target="ihXd_GU8iQ0Z5vv8orbL-5">
          <mxGeometry relative="1" as="geometry" />
        </mxCell>
        <mxCell id="ihXd_GU8iQ0Z5vv8orbL-4" value="Energy \(&amp;gt;&amp;gt;\) Mass" style="whiteSpace=wrap;html=1;rounded=1;" vertex="1" parent="yK0ir2uRmSv_IbER57dE-1">
          <mxGeometry x="160" y="160" width="120" height="60" as="geometry" />
        </mxCell>
        <mxCell id="ihXd_GU8iQ0Z5vv8orbL-5" value="$$|\mathbf{p}|=\left|\mathbf{p}^{\prime}\right|=|\mathbf{k}|=\left|\mathbf{k}^{\prime}\right|=E \equiv E_{\mathrm{cm}} / 2$$" style="rounded=1;whiteSpace=wrap;html=1;" vertex="1" parent="yK0ir2uRmSv_IbER57dE-1">
          <mxGeometry x="320" y="120" width="240" height="60" as="geometry" />
        </mxCell>
        <mxCell id="eCxXJJobvqJ6Iow8f0sI-0" value="$$e+e-\to\mu+\mu-$$" style="rounded=1;whiteSpace=wrap;html=1;" vertex="1" parent="yK0ir2uRmSv_IbER57dE-1">
          <mxGeometry y="120" width="120" height="60" as="geometry" />
        </mxCell>
        <mxCell id="eCxXJJobvqJ6Iow8f0sI-3" value="" style="edgeStyle=orthogonalEdgeStyle;rounded=0;orthogonalLoop=1;jettySize=auto;html=1;" edge="1" parent="yK0ir2uRmSv_IbER57dE-1" source="eCxXJJobvqJ6Iow8f0sI-1" target="eCxXJJobvqJ6Iow8f0sI-2">
          <mxGeometry relative="1" as="geometry" />
        </mxCell>
        <mxCell id="eCxXJJobvqJ6Iow8f0sI-5" style="edgeStyle=orthogonalEdgeStyle;rounded=0;orthogonalLoop=1;jettySize=auto;html=1;entryX=0;entryY=0.5;entryDx=0;entryDy=0;" edge="1" parent="yK0ir2uRmSv_IbER57dE-1" source="eCxXJJobvqJ6Iow8f0sI-1" target="eCxXJJobvqJ6Iow8f0sI-4">
          <mxGeometry relative="1" as="geometry" />
        </mxCell>
        <mxCell id="eCxXJJobvqJ6Iow8f0sI-1" value="Both spin 1/2" style="rounded=1;whiteSpace=wrap;html=1;" vertex="1" parent="yK0ir2uRmSv_IbER57dE-1">
          <mxGeometry x="160" y="240" width="120" height="60" as="geometry" />
        </mxCell>
        <mxCell id="eCxXJJobvqJ6Iow8f0sI-2" value="\(e+e-\) unpolarized" style="whiteSpace=wrap;html=1;rounded=1;" vertex="1" parent="yK0ir2uRmSv_IbER57dE-1">
          <mxGeometry x="320" y="210" width="120" height="60" as="geometry" />
        </mxCell>
        <mxCell id="eCxXJJobvqJ6Iow8f0sI-4" value="\(\mu+\mu-\) blind to detector" style="whiteSpace=wrap;html=1;rounded=1;" vertex="1" parent="yK0ir2uRmSv_IbER57dE-1">
          <mxGeometry x="320" y="290" width="120" height="60" as="geometry" />
        </mxCell>
        <mxCell id="eCxXJJobvqJ6Iow8f0sI-6" value="" style="endArrow=classic;html=1;rounded=0;entryX=0;entryY=0.5;entryDx=0;entryDy=0;exitX=1;exitY=0.5;exitDx=0;exitDy=0;" edge="1" parent="yK0ir2uRmSv_IbER57dE-1" source="eCxXJJobvqJ6Iow8f0sI-0" target="ihXd_GU8iQ0Z5vv8orbL-0">
          <mxGeometry width="50" height="50" relative="1" as="geometry">
            <mxPoint x="120" y="130" as="sourcePoint" />
            <mxPoint x="90" y="270" as="targetPoint" />
          </mxGeometry>
        </mxCell>
        <mxCell id="eCxXJJobvqJ6Iow8f0sI-7" value="" style="endArrow=classic;html=1;rounded=0;entryX=0;entryY=0.5;entryDx=0;entryDy=0;exitX=1;exitY=0.5;exitDx=0;exitDy=0;" edge="1" parent="yK0ir2uRmSv_IbER57dE-1" source="eCxXJJobvqJ6Iow8f0sI-0" target="ihXd_GU8iQ0Z5vv8orbL-2">
          <mxGeometry width="50" height="50" relative="1" as="geometry">
            <mxPoint x="90" y="280" as="sourcePoint" />
            <mxPoint x="140" y="230" as="targetPoint" />
          </mxGeometry>
        </mxCell>
        <mxCell id="eCxXJJobvqJ6Iow8f0sI-8" value="" style="endArrow=classic;html=1;rounded=0;entryX=0;entryY=0.5;entryDx=0;entryDy=0;exitX=1;exitY=0.5;exitDx=0;exitDy=0;" edge="1" parent="yK0ir2uRmSv_IbER57dE-1" source="eCxXJJobvqJ6Iow8f0sI-0" target="ihXd_GU8iQ0Z5vv8orbL-4">
          <mxGeometry width="50" height="50" relative="1" as="geometry">
            <mxPoint x="50" y="290" as="sourcePoint" />
            <mxPoint x="100" y="240" as="targetPoint" />
          </mxGeometry>
        </mxCell>
        <mxCell id="eCxXJJobvqJ6Iow8f0sI-10" value="" style="endArrow=classic;html=1;rounded=0;entryX=0;entryY=0.5;entryDx=0;entryDy=0;exitX=1;exitY=0.5;exitDx=0;exitDy=0;" edge="1" parent="yK0ir2uRmSv_IbER57dE-1" source="eCxXJJobvqJ6Iow8f0sI-0" target="eCxXJJobvqJ6Iow8f0sI-1">
          <mxGeometry width="50" height="50" relative="1" as="geometry">
            <mxPoint x="60" y="290" as="sourcePoint" />
            <mxPoint x="110" y="240" as="targetPoint" />
          </mxGeometry>
        </mxCell>
      </root>
    </mxGraphModel>
  </diagram>
  <diagram id="iFd7teKLrNy8ccLWuwIt" name="Why we need Feynman diagram?">
    <mxGraphModel dx="1186" dy="499" grid="1" gridSize="10" guides="1" tooltips="1" connect="1" arrows="1" fold="1" page="1" pageScale="1" pageWidth="850" pageHeight="1100" math="1" shadow="0">
      <root>
        <mxCell id="FVgiOC4YXO0VKu60sSpL-0" />
        <mxCell id="FVgiOC4YXO0VKu60sSpL-1" parent="FVgiOC4YXO0VKu60sSpL-0" />
      </root>
    </mxGraphModel>
  </diagram>
</mxfile>
